<svg xmlns="http://www.w3.org/2000/svg" width="800" height="500">
  <rect width="100%" height="100%" fill="white"/>
  <text x="400" y="30" text-anchor="middle" font-size="18" font-weight="bold">GET — получение значения по ключу (мс)</text>
  <line x1="80" y1="60" x2="80" y2="420" stroke="black"/>
  <line x1="80" y1="420" x2="760" y2="420" stroke="black"/>
  <text x="75" y="424" text-anchor="end" font-size="11">0,0</text>
  <line x1="80" y1="420" x2="760" y2="420" stroke="#ddd"/>
  <text x="75" y="352" text-anchor="end" font-size="11">6182,3</text>
  <line x1="80" y1="348" x2="760" y2="348" stroke="#ddd"/>
  <text x="75" y="280" text-anchor="end" font-size="11">12364,6</text>
  <line x1="80" y1="276" x2="760" y2="276" stroke="#ddd"/>
  <text x="75" y="208" text-anchor="end" font-size="11">18546,9</text>
  <line x1="80" y1="204" x2="760" y2="204" stroke="#ddd"/>
  <text x="75" y="136" text-anchor="end" font-size="11">24729,2</text>
  <line x1="80" y1="132" x2="760" y2="132" stroke="#ddd"/>
  <text x="75" y="64" text-anchor="end" font-size="11">30911,5</text>
  <line x1="80" y1="60" x2="760" y2="60" stroke="#ddd"/>
  <text x="15" y="240" text-anchor="middle" font-size="13" transform="rotate(-90 15 240)">Время (мс)</text>
  <rect x="123" y="420" width="56" height="0" fill="#4472C4"/>
  <text x="151" y="415" text-anchor="middle" font-size="10">27,1</text>
  <rect x="207" y="420" width="56" height="0" fill="#ED7D31"/>
  <text x="235" y="415" text-anchor="middle" font-size="10">72,3</text>
  <text x="193" y="440" text-anchor="middle" font-size="12">100K</text>
  <rect x="349" y="415" width="56" height="5" fill="#4472C4"/>
  <text x="377" y="410" text-anchor="middle" font-size="10">434,7</text>
  <rect x="433" y="406" width="56" height="14" fill="#ED7D31"/>
  <text x="461" y="401" text-anchor="middle" font-size="10">1227,8</text>
  <text x="419" y="440" text-anchor="middle" font-size="12">1M</text>
  <rect x="575" y="363" width="56" height="57" fill="#4472C4"/>
  <text x="603" y="358" text-anchor="middle" font-size="10">4928,4</text>
  <rect x="659" y="93" width="56" height="327" fill="#ED7D31"/>
  <text x="687" y="88" text-anchor="middle" font-size="10">28101,4</text>
  <text x="645" y="440" text-anchor="middle" font-size="12">10M</text>
  <rect x="610" y="70" width="12" height="12" fill="#4472C4"/>
  <text x="628" y="80" font-size="12">MyHashMap</text>
  <rect x="610" y="88" width="12" height="12" fill="#ED7D31"/>
  <text x="628" y="98" font-size="12">MyTreeMap</text>
</svg>
