<svg xmlns="http://www.w3.org/2000/svg" width="800" height="500">
  <rect width="100%" height="100%" fill="white"/>
  <text x="400" y="30" text-anchor="middle" font-size="18" font-weight="bold">REMOVE — удаление по ключу (мс)</text>
  <line x1="80" y1="60" x2="80" y2="420" stroke="black"/>
  <line x1="80" y1="420" x2="760" y2="420" stroke="black"/>
  <text x="75" y="424" text-anchor="end" font-size="11">0,0</text>
  <line x1="80" y1="420" x2="760" y2="420" stroke="#ddd"/>
  <text x="75" y="352" text-anchor="end" font-size="11">372,7</text>
  <line x1="80" y1="348" x2="760" y2="348" stroke="#ddd"/>
  <text x="75" y="280" text-anchor="end" font-size="11">745,5</text>
  <line x1="80" y1="276" x2="760" y2="276" stroke="#ddd"/>
  <text x="75" y="208" text-anchor="end" font-size="11">1118,2</text>
  <line x1="80" y1="204" x2="760" y2="204" stroke="#ddd"/>
  <text x="75" y="136" text-anchor="end" font-size="11">1491,0</text>
  <line x1="80" y1="132" x2="760" y2="132" stroke="#ddd"/>
  <text x="75" y="64" text-anchor="end" font-size="11">1863,7</text>
  <line x1="80" y1="60" x2="760" y2="60" stroke="#ddd"/>
  <text x="15" y="240" text-anchor="middle" font-size="13" transform="rotate(-90 15 240)">Время (мс)</text>
  <rect x="123" y="413" width="56" height="7" fill="#4472C4"/>
  <text x="151" y="408" text-anchor="middle" font-size="10">36,9</text>
  <rect x="207" y="404" width="56" height="16" fill="#ED7D31"/>
  <text x="235" y="399" text-anchor="middle" font-size="10">86,0</text>
  <text x="193" y="440" text-anchor="middle" font-size="12">100K</text>
  <rect x="349" y="341" width="56" height="79" fill="#4472C4"/>
  <text x="377" y="336" text-anchor="middle" font-size="10">411,3</text>
  <rect x="433" y="93" width="56" height="327" fill="#ED7D31"/>
  <text x="461" y="88" text-anchor="middle" font-size="10">1694,3</text>
  <text x="419" y="440" text-anchor="middle" font-size="12">1M</text>
  <text x="645" y="440" text-anchor="middle" font-size="12">10M</text>
  <rect x="610" y="70" width="12" height="12" fill="#4472C4"/>
  <text x="628" y="80" font-size="12">MyHashMap</text>
  <rect x="610" y="88" width="12" height="12" fill="#ED7D31"/>
  <text x="628" y="98" font-size="12">MyTreeMap</text>
</svg>
