<svg width="2230pt" height="584pt" viewBox="0.00 0.00 2230.00 584.00" xmlns="http://www.w3.org/2000/svg" xmlns:xlink="http://www.w3.org/1999/xlink">
<g id="graph0" class="graph" transform="scale(1 1) rotate(0) translate(4 580)">
<title>ER</title>
<polygon fill="white" stroke="none" points="-4,4 -4,-580 2226.34,-580 2226.34,4 -4,4"/>
<!-- Artist -->
<g id="node1" class="node">
<title>Artist</title>
<polygon fill="none" stroke="black" points="379.74,-360 313.96,-360 313.96,-324 379.74,-324 379.74,-360"/>
<text xml:space="preserve" text-anchor="middle" x="346.85" y="-337.8" font-family="Arial" font-size="14.00">ARTIST</text>
</g>
<!-- artist_id -->
<g id="node9" class="node">
<title>artist_id</title>
<ellipse fill="none" stroke="black" cx="44.85" cy="-234" rx="44.85" ry="18"/>
<text xml:space="preserve" text-anchor="middle" x="44.85" y="-229.8" font-family="Arial" font-size="14.00">artist_id</text>
</g>
<!-- Artist&#45;&gt;artist_id -->
<g id="edge1" class="edge">
<title>Artist-&gt;artist_id</title>
<path fill="none" stroke="black" d="M313.67,-348C235.22,-348 44.85,-348 44.85,-348 44.85,-348 44.85,-263.83 44.85,-263.83"/>
<polygon fill="black" stroke="black" points="48.35,-263.83 44.85,-253.83 41.35,-263.83 48.35,-263.83"/>
</g>
<!-- artist_name -->
<g id="node10" class="node">
<title>artist_name</title>
<ellipse fill="none" stroke="black" cx="196.85" cy="-234" rx="35.19" ry="18"/>
<text xml:space="preserve" text-anchor="middle" x="196.85" y="-229.8" font-family="Arial" font-size="14.00">name</text>
</g>
<!-- Artist&#45;&gt;artist_name -->
<g id="edge2" class="edge">
<title>Artist-&gt;artist_name</title>
<path fill="none" stroke="black" d="M313.56,-336C269.37,-336 196.85,-336 196.85,-336 196.85,-336 196.85,-263.75 196.85,-263.75"/>
<polygon fill="black" stroke="black" points="200.35,-263.75 196.85,-253.75 193.35,-263.75 200.35,-263.75"/>
</g>
<!-- country -->
<g id="node11" class="node">
<title>country</title>
<ellipse fill="none" stroke="black" cx="346.85" cy="-234" rx="42.7" ry="18"/>
<text xml:space="preserve" text-anchor="middle" x="346.85" y="-229.8" font-family="Arial" font-size="14.00">country</text>
</g>
<!-- Artist&#45;&gt;country -->
<g id="edge3" class="edge">
<title>Artist-&gt;country</title>
<path fill="none" stroke="black" d="M346.85,-323.68C346.85,-323.68 346.85,-263.92 346.85,-263.92"/>
<polygon fill="black" stroke="black" points="350.35,-263.92 346.85,-253.92 343.35,-263.92 350.35,-263.92"/>
</g>
<!-- style -->
<g id="node12" class="node">
<title>style</title>
<ellipse fill="none" stroke="black" cx="492.85" cy="-234" rx="30.89" ry="18"/>
<text xml:space="preserve" text-anchor="middle" x="492.85" y="-229.8" font-family="Arial" font-size="14.00">style</text>
</g>
<!-- Artist&#45;&gt;style -->
<g id="edge4" class="edge">
<title>Artist-&gt;style</title>
<path fill="none" stroke="black" d="M379.98,-333C423.06,-333 492.85,-333 492.85,-333 492.85,-333 492.85,-263.67 492.85,-263.67"/>
<polygon fill="black" stroke="black" points="496.35,-263.67 492.85,-253.67 489.35,-263.67 496.35,-263.67"/>
</g>
<!-- Creates -->
<g id="node27" class="node">
<title>Creates</title>
<polygon fill="none" stroke="black" points="655.85,-252 595.46,-234 655.85,-216 716.24,-234 655.85,-252"/>
<text xml:space="preserve" text-anchor="middle" x="655.85" y="-229.8" font-family="Arial" font-size="14.00">creates</text>
</g>
<!-- Artist&#45;&gt;Creates -->
<g id="edge19" class="edge">
<title>Artist-&gt;Creates</title>
<path fill="none" stroke="black" d="M380.21,-351C460.11,-351 655.85,-351 655.85,-351 655.85,-351 655.85,-263.79 655.85,-263.79"/>
<polygon fill="black" stroke="black" points="659.35,-263.79 655.85,-253.79 652.35,-263.79 659.35,-263.79"/>
</g>
<!-- Track -->
<g id="node2" class="node">
<title>Track</title>
<polygon fill="none" stroke="black" points="1467.57,-144 1404.13,-144 1404.13,-108 1467.57,-108 1467.57,-144"/>
<text xml:space="preserve" text-anchor="middle" x="1435.85" y="-121.8" font-family="Arial" font-size="14.00">TRACK</text>
</g>
<!-- track_id -->
<g id="node13" class="node">
<title>track_id</title>
<ellipse fill="none" stroke="black" cx="1162.85" cy="-18" rx="44.85" ry="18"/>
<text xml:space="preserve" text-anchor="middle" x="1162.85" y="-13.8" font-family="Arial" font-size="14.00">track_id</text>
</g>
<!-- Track&#45;&gt;track_id -->
<g id="edge5" class="edge">
<title>Track-&gt;track_id</title>
<path fill="none" stroke="black" d="M1403.73,-122C1331.57,-122 1162.85,-122 1162.85,-122 1162.85,-122 1162.85,-47.63 1162.85,-47.63"/>
<polygon fill="black" stroke="black" points="1166.35,-47.63 1162.85,-37.63 1159.35,-47.63 1166.35,-47.63"/>
</g>
<!-- title -->
<g id="node14" class="node">
<title>title</title>
<ellipse fill="none" stroke="black" cx="1306.85" cy="-18" rx="27" ry="18"/>
<text xml:space="preserve" text-anchor="middle" x="1306.85" y="-13.8" font-family="Arial" font-size="14.00">title</text>
</g>
<!-- Track&#45;&gt;title -->
<g id="edge6" class="edge">
<title>Track-&gt;title</title>
<path fill="none" stroke="black" d="M1403.69,-115C1370.53,-115 1323.63,-115 1323.63,-115 1323.63,-115 1323.63,-43.83 1323.63,-43.83"/>
<polygon fill="black" stroke="black" points="1327.13,-43.83 1323.63,-33.83 1320.13,-43.83 1327.13,-43.83"/>
</g>
<!-- bpm -->
<g id="node15" class="node">
<title>bpm</title>
<ellipse fill="none" stroke="black" cx="1435.85" cy="-18" rx="29.82" ry="18"/>
<text xml:space="preserve" text-anchor="middle" x="1435.85" y="-13.8" font-family="Arial" font-size="14.00">bpm</text>
</g>
<!-- Track&#45;&gt;bpm -->
<g id="edge7" class="edge">
<title>Track-&gt;bpm</title>
<path fill="none" stroke="black" d="M1435.85,-107.68C1435.85,-107.68 1435.85,-47.92 1435.85,-47.92"/>
<polygon fill="black" stroke="black" points="1439.35,-47.92 1435.85,-37.92 1432.35,-47.92 1439.35,-47.92"/>
</g>
<!-- key -->
<g id="node16" class="node">
<title>key</title>
<ellipse fill="none" stroke="black" cx="1564.85" cy="-18" rx="27" ry="18"/>
<text xml:space="preserve" text-anchor="middle" x="1564.85" y="-13.8" font-family="Arial" font-size="14.00">key</text>
</g>
<!-- Track&#45;&gt;key -->
<g id="edge8" class="edge">
<title>Track-&gt;key</title>
<path fill="none" stroke="black" d="M1467.77,-115C1501.68,-115 1550.45,-115 1550.45,-115 1550.45,-115 1550.45,-45.1 1550.45,-45.1"/>
<polygon fill="black" stroke="black" points="1553.95,-45.1 1550.45,-35.1 1546.95,-45.1 1553.95,-45.1"/>
</g>
<!-- duration -->
<g id="node17" class="node">
<title>duration</title>
<ellipse fill="none" stroke="black" cx="1709.85" cy="-18" rx="45.93" ry="18"/>
<text xml:space="preserve" text-anchor="middle" x="1709.85" y="-13.8" font-family="Arial" font-size="14.00">duration</text>
</g>
<!-- Track&#45;&gt;duration -->
<g id="edge9" class="edge">
<title>Track-&gt;duration</title>
<path fill="none" stroke="black" d="M1467.82,-122C1540.1,-122 1709.85,-122 1709.85,-122 1709.85,-122 1709.85,-47.63 1709.85,-47.63"/>
<polygon fill="black" stroke="black" points="1713.35,-47.63 1709.85,-37.63 1706.35,-47.63 1713.35,-47.63"/>
</g>
<!-- Genre -->
<g id="node3" class="node">
<title>Genre</title>
<polygon fill="none" stroke="black" points="1025.74,-360 959.96,-360 959.96,-324 1025.74,-324 1025.74,-360"/>
<text xml:space="preserve" text-anchor="middle" x="992.85" y="-337.8" font-family="Arial" font-size="14.00">GENRE</text>
</g>
<!-- genre_id -->
<g id="node18" class="node">
<title>genre_id</title>
<ellipse fill="none" stroke="black" cx="836.85" cy="-234" rx="48.62" ry="18"/>
<text xml:space="preserve" text-anchor="middle" x="836.85" y="-229.8" font-family="Arial" font-size="14.00">genre_id</text>
</g>
<!-- Genre&#45;&gt;genre_id -->
<g id="edge10" class="edge">
<title>Genre-&gt;genre_id</title>
<path fill="none" stroke="black" d="M959.77,-342C913.97,-342 836.85,-342 836.85,-342 836.85,-342 836.85,-263.83 836.85,-263.83"/>
<polygon fill="black" stroke="black" points="840.35,-263.83 836.85,-253.83 833.35,-263.83 840.35,-263.83"/>
</g>
<!-- genre_name -->
<g id="node19" class="node">
<title>genre_name</title>
<ellipse fill="none" stroke="black" cx="992.85" cy="-234" rx="35.19" ry="18"/>
<text xml:space="preserve" text-anchor="middle" x="992.85" y="-229.8" font-family="Arial" font-size="14.00">name</text>
</g>
<!-- Genre&#45;&gt;genre_name -->
<g id="edge11" class="edge">
<title>Genre-&gt;genre_name</title>
<path fill="none" stroke="black" d="M992.85,-323.68C992.85,-323.68 992.85,-263.92 992.85,-263.92"/>
<polygon fill="black" stroke="black" points="996.35,-263.92 992.85,-253.92 989.35,-263.92 996.35,-263.92"/>
</g>
<!-- Classifies -->
<g id="node28" class="node">
<title>Classifies</title>
<polygon fill="none" stroke="black" points="1170.85,-252 1099.84,-234 1170.85,-216 1241.86,-234 1170.85,-252"/>
<text xml:space="preserve" text-anchor="middle" x="1170.85" y="-229.8" font-family="Arial" font-size="14.00">classifies</text>
</g>
<!-- Genre&#45;&gt;Classifies -->
<g id="edge21" class="edge">
<title>Genre-&gt;Classifies</title>
<path fill="none" stroke="black" d="M1025.91,-348C1077.39,-348 1170.85,-348 1170.85,-348 1170.85,-348 1170.85,-263.83 1170.85,-263.83"/>
<polygon fill="black" stroke="black" points="1174.35,-263.83 1170.85,-253.83 1167.35,-263.83 1174.35,-263.83"/>
</g>
<!-- Playlist -->
<g id="node4" class="node">
<title>Playlist</title>
<polygon fill="none" stroke="black" points="1568.53,-360 1487.17,-360 1487.17,-324 1568.53,-324 1568.53,-360"/>
<text xml:space="preserve" text-anchor="middle" x="1527.85" y="-337.8" font-family="Arial" font-size="14.00">PLAYLIST</text>
</g>
<!-- playlist_id -->
<g id="node20" class="node">
<title>playlist_id</title>
<ellipse fill="none" stroke="black" cx="1366.85" cy="-234" rx="53.44" ry="18"/>
<text xml:space="preserve" text-anchor="middle" x="1366.85" y="-229.8" font-family="Arial" font-size="14.00">playlist_id</text>
</g>
<!-- Playlist&#45;&gt;playlist_id -->
<g id="edge12" class="edge">
<title>Playlist-&gt;playlist_id</title>
<path fill="none" stroke="black" d="M1486.81,-336C1439.11,-336 1366.85,-336 1366.85,-336 1366.85,-336 1366.85,-263.75 1366.85,-263.75"/>
<polygon fill="black" stroke="black" points="1370.35,-263.75 1366.85,-253.75 1363.35,-263.75 1370.35,-263.75"/>
</g>
<!-- playlist_name -->
<g id="node21" class="node">
<title>playlist_name</title>
<ellipse fill="none" stroke="black" cx="1527.85" cy="-234" rx="35.19" ry="18"/>
<text xml:space="preserve" text-anchor="middle" x="1527.85" y="-229.8" font-family="Arial" font-size="14.00">name</text>
</g>
<!-- Playlist&#45;&gt;playlist_name -->
<g id="edge13" class="edge">
<title>Playlist-&gt;playlist_name</title>
<path fill="none" stroke="black" d="M1527.85,-323.68C1527.85,-323.68 1527.85,-263.92 1527.85,-263.92"/>
<polygon fill="black" stroke="black" points="1531.35,-263.92 1527.85,-253.92 1524.35,-263.92 1531.35,-263.92"/>
</g>
<!-- Includes -->
<g id="node29" class="node">
<title>Includes</title>
<polygon fill="none" stroke="black" points="1700.85,-252 1635.14,-234 1700.85,-216 1766.56,-234 1700.85,-252"/>
<text xml:space="preserve" text-anchor="middle" x="1700.85" y="-229.8" font-family="Arial" font-size="14.00">includes</text>
</g>
<!-- Playlist&#45;&gt;Includes -->
<g id="edge23" class="edge">
<title>Playlist-&gt;Includes</title>
<path fill="none" stroke="black" d="M1569.02,-348C1609.84,-348 1666.32,-348 1666.32,-348 1666.32,-348 1666.32,-254.46 1666.32,-254.46"/>
<polygon fill="black" stroke="black" points="1669.82,-254.46 1666.32,-244.46 1662.82,-254.46 1669.82,-254.46"/>
</g>
<!-- PlaylistTrack -->
<g id="node5" class="node">
<title>PlaylistTrack</title>
<polygon fill="none" stroke="black" points="2044.15,-576 1907.55,-576 1907.55,-540 2044.15,-540 2044.15,-576"/>
<text xml:space="preserve" text-anchor="middle" x="1975.85" y="-553.8" font-family="Arial" font-size="14.00">PLAYLIST_TRACK</text>
</g>
<!-- Set -->
<g id="node6" class="node">
<title>Set</title>
<polygon fill="none" stroke="black" points="2046.85,-360 1992.85,-360 1992.85,-324 2046.85,-324 2046.85,-360"/>
<text xml:space="preserve" text-anchor="middle" x="2019.85" y="-337.8" font-family="Arial" font-size="14.00">SET</text>
</g>
<!-- set_id -->
<g id="node22" class="node">
<title>set_id</title>
<ellipse fill="none" stroke="black" cx="1875.85" cy="-234" rx="36.81" ry="18"/>
<text xml:space="preserve" text-anchor="middle" x="1875.85" y="-229.8" font-family="Arial" font-size="14.00">set_id</text>
</g>
<!-- Set&#45;&gt;set_id -->
<g id="edge14" class="edge">
<title>Set-&gt;set_id</title>
<path fill="none" stroke="black" d="M1992.39,-336C1950.1,-336 1873.85,-336 1873.85,-336 1873.85,-336 1873.85,-263.75 1873.85,-263.75"/>
<polygon fill="black" stroke="black" points="1877.35,-263.75 1873.85,-253.75 1870.35,-263.75 1877.35,-263.75"/>
</g>
<!-- set_name -->
<g id="node23" class="node">
<title>set_name</title>
<ellipse fill="none" stroke="black" cx="2019.85" cy="-234" rx="35.19" ry="18"/>
<text xml:space="preserve" text-anchor="middle" x="2019.85" y="-229.8" font-family="Arial" font-size="14.00">name</text>
</g>
<!-- Set&#45;&gt;set_name -->
<g id="edge15" class="edge">
<title>Set-&gt;set_name</title>
<path fill="none" stroke="black" d="M2019.85,-323.68C2019.85,-323.68 2019.85,-263.92 2019.85,-263.92"/>
<polygon fill="black" stroke="black" points="2023.35,-263.92 2019.85,-253.92 2016.35,-263.92 2023.35,-263.92"/>
</g>
<!-- Plays -->
<g id="node30" class="node">
<title>Plays</title>
<polygon fill="none" stroke="black" points="2174.85,-252 2127.36,-234 2174.85,-216 2222.34,-234 2174.85,-252"/>
<text xml:space="preserve" text-anchor="middle" x="2174.85" y="-229.8" font-family="Arial" font-size="14.00">plays</text>
</g>
<!-- Set&#45;&gt;Plays -->
<g id="edge25" class="edge">
<title>Set-&gt;Plays</title>
<path fill="none" stroke="black" d="M2047.26,-342C2090.88,-342 2171.22,-342 2171.22,-342 2171.22,-342 2171.22,-262.39 2171.22,-262.39"/>
<polygon fill="black" stroke="black" points="2174.72,-262.39 2171.22,-252.39 2167.72,-262.39 2174.72,-262.39"/>
</g>
<!-- SetTrack -->
<g id="node7" class="node">
<title>SetTrack</title>
<polygon fill="none" stroke="black" points="2215.08,-576 2116.62,-576 2116.62,-540 2215.08,-540 2215.08,-576"/>
<text xml:space="preserve" text-anchor="middle" x="2165.85" y="-553.8" font-family="Arial" font-size="14.00">SET_TRACK</text>
</g>
<!-- Event -->
<g id="node8" class="node">
<title>Event</title>
<polygon fill="none" stroke="black" points="1835.19,-576 1772.51,-576 1772.51,-540 1835.19,-540 1835.19,-576"/>
<text xml:space="preserve" text-anchor="middle" x="1803.85" y="-553.8" font-family="Arial" font-size="14.00">EVENT</text>
</g>
<!-- event_id -->
<g id="node24" class="node">
<title>event_id</title>
<ellipse fill="none" stroke="black" cx="1577.85" cy="-450" rx="47.55" ry="18"/>
<text xml:space="preserve" text-anchor="middle" x="1577.85" y="-445.8" font-family="Arial" font-size="14.00">event_id</text>
</g>
<!-- Event&#45;&gt;event_id -->
<g id="edge16" class="edge">
<title>Event-&gt;event_id</title>
<path fill="none" stroke="black" d="M1772.43,-558C1710.33,-558 1577.85,-558 1577.85,-558 1577.85,-558 1577.85,-479.83 1577.85,-479.83"/>
<polygon fill="black" stroke="black" points="1581.35,-479.83 1577.85,-469.83 1574.35,-479.83 1581.35,-479.83"/>
</g>
<!-- venue -->
<g id="node25" class="node">
<title>venue</title>
<ellipse fill="none" stroke="black" cx="1734.85" cy="-450" rx="37.35" ry="18"/>
<text xml:space="preserve" text-anchor="middle" x="1734.85" y="-445.8" font-family="Arial" font-size="14.00">venue</text>
</g>
<!-- Event&#45;&gt;venue -->
<g id="edge17" class="edge">
<title>Event-&gt;venue</title>
<path fill="none" stroke="black" d="M1814.3,-539.68C1814.3,-508.87 1814.3,-450 1814.3,-450 1814.3,-450 1783.76,-450 1783.76,-450"/>
<polygon fill="black" stroke="black" points="1783.76,-446.5 1773.76,-450 1783.76,-453.5 1783.76,-446.5"/>
</g>
<!-- date -->
<g id="node26" class="node">
<title>date</title>
<ellipse fill="none" stroke="black" cx="1873.85" cy="-450" rx="29.83" ry="18"/>
<text xml:space="preserve" text-anchor="middle" x="1873.85" y="-445.8" font-family="Arial" font-size="14.00">date</text>
</g>
<!-- Event&#45;&gt;date -->
<g id="edge18" class="edge">
<title>Event-&gt;date</title>
<path fill="none" stroke="black" d="M1835.57,-558C1854.09,-558 1873.85,-558 1873.85,-558 1873.85,-558 1873.85,-479.83 1873.85,-479.83"/>
<polygon fill="black" stroke="black" points="1877.35,-479.83 1873.85,-469.83 1870.35,-479.83 1877.35,-479.83"/>
</g>
<!-- Uses -->
<g id="node31" class="node">
<title>Uses</title>
<polygon fill="none" stroke="black" points="2019.85,-468 1975.39,-450 2019.85,-432 2064.31,-450 2019.85,-468"/>
<text xml:space="preserve" text-anchor="middle" x="2019.85" y="-445.8" font-family="Arial" font-size="14.00">uses</text>
</g>
<!-- Event&#45;&gt;Uses -->
<g id="edge27" class="edge">
<title>Event-&gt;Uses</title>
<path fill="none" stroke="black" d="M1793.4,-539.72C1793.4,-524.05 1793.4,-504 1793.4,-504 1793.4,-504 2009.77,-504 2009.77,-504 2009.77,-504 2009.77,-475.7 2009.77,-475.7"/>
<polygon fill="black" stroke="black" points="2013.27,-475.7 2009.77,-465.7 2006.27,-475.7 2013.27,-475.7"/>
</g>
<!-- Creates&#45;&gt;Track -->
<g id="edge20" class="edge">
<title>Creates-&gt;Track</title>
<path fill="none" stroke="black" d="M655.85,-215.88C655.85,-186.09 655.85,-130 655.85,-130 655.85,-130 1392.31,-130 1392.31,-130"/>
<polygon fill="black" stroke="black" points="1392.31,-133.5 1402.31,-130 1392.31,-126.5 1392.31,-133.5"/>
</g>
<!-- Classifies&#45;&gt;Track -->
<g id="edge22" class="edge">
<title>Classifies-&gt;Track</title>
<path fill="none" stroke="black" d="M1224.78,-229.32C1224.78,-209.95 1224.78,-137 1224.78,-137 1224.78,-137 1392.28,-137 1392.28,-137"/>
<polygon fill="black" stroke="black" points="1392.28,-140.5 1402.28,-137 1392.28,-133.5 1392.28,-140.5"/>
</g>
<!-- Includes&#45;&gt;Track -->
<g id="edge24" class="edge">
<title>Includes-&gt;Track</title>
<path fill="none" stroke="black" d="M1649.53,-229.58C1649.53,-210.6 1649.53,-137 1649.53,-137 1649.53,-137 1479.35,-137 1479.35,-137"/>
<polygon fill="black" stroke="black" points="1479.35,-133.5 1469.35,-137 1479.35,-140.5 1479.35,-133.5"/>
</g>
<!-- Plays&#45;&gt;Track -->
<g id="edge26" class="edge">
<title>Plays-&gt;Track</title>
<path fill="none" stroke="black" d="M2174.85,-215.88C2174.85,-186.09 2174.85,-130 2174.85,-130 2174.85,-130 1479.12,-130 1479.12,-130"/>
<polygon fill="black" stroke="black" points="1479.12,-126.5 1469.12,-130 1479.12,-133.5 1479.12,-126.5"/>
</g>
<!-- Uses&#45;&gt;Set -->
<g id="edge28" class="edge">
<title>Uses-&gt;Set</title>
<path fill="none" stroke="black" d="M2019.85,-431.68C2019.85,-431.68 2019.85,-371.92 2019.85,-371.92"/>
<polygon fill="black" stroke="black" points="2023.35,-371.92 2019.85,-361.92 2016.35,-371.92 2023.35,-371.92"/>
</g>
</g>
</svg>