<?plantuml 1.2026.2beta3?>
<svg xmlns="http://www.w3.org/2000/svg" xmlns:xlink="http://www.w3.org/1999/xlink" contentStyleType="text/css" data-diagram-type="DESCRIPTION" height="226px" preserveAspectRatio="none" style="width:1608px;height:226px;background:#FFFFFF;" version="1.1" viewBox="0 0 1608 226" width="1608px" zoomAndPan="magnify"><defs/><g><!--cluster DJ Library System--><g class="cluster" data-qualified-name="DJ Library System" data-source-line="7" id="ent0005"><rect fill="none" height="113.99" rx="2.5" ry="2.5" style="stroke:#181818;stroke-width:1;" width="1595" x="7" y="106.79"/><text fill="#000000" font-family="sans-serif" font-size="14" font-weight="bold" lengthAdjust="spacing" textLength="141.0186" x="733.9907" y="121.7851">DJ Library System</text></g><!--entity UC1--><g class="entity" data-qualified-name="DJ Library System.UC1" data-source-line="8" id="ent0006"><ellipse cx="876.0025" cy="173.2885" fill="#F1F1F1" rx="90.3925" ry="20.4785" style="stroke:#181818;stroke-width:0.5;"/><text fill="#000000" font-family="sans-serif" font-size="14" lengthAdjust="spacing" textLength="154.6289" x="798.6881" y="177.9369">Управление треками</text></g><!--entity UC2--><g class="entity" data-qualified-name="DJ Library System.UC2" data-source-line="9" id="ent0007"><ellipse cx="330.9996" cy="173.2939" fill="#F1F1F1" rx="93.6196" ry="21.1239" style="stroke:#181818;stroke-width:0.5;"/><text fill="#000000" font-family="sans-serif" font-size="14" lengthAdjust="spacing" textLength="161.8887" x="250.0553" y="177.9424">Создание плейлистов</text></g><!--entity UC3--><g class="entity" data-qualified-name="DJ Library System.UC3" data-source-line="10" id="ent0008"><ellipse cx="112.9951" cy="173.291" fill="#F1F1F1" rx="89.7551" ry="20.351" style="stroke:#181818;stroke-width:0.5;"/><text fill="#000000" font-family="sans-serif" font-size="14" lengthAdjust="spacing" textLength="153.1865" x="36.4019" y="177.9395">Планирование сетов</text></g><!--entity UC4--><g class="entity" data-qualified-name="DJ Library System.UC4" data-source-line="11" id="ent0009"><ellipse cx="1082.995" cy="173.293" fill="#F1F1F1" rx="81.315" ry="18.663" style="stroke:#181818;stroke-width:0.5;"/><text fill="#000000" font-family="sans-serif" font-size="14" lengthAdjust="spacing" textLength="133.7656" x="1016.1122" y="177.9414">Назначение сетов</text></g><!--entity UC5--><g class="entity" data-qualified-name="DJ Library System.UC5" data-source-line="12" id="ent0010"><ellipse cx="1292.0043" cy="173.2889" fill="#F1F1F1" rx="92.9943" ry="20.9989" style="stroke:#181818;stroke-width:0.5;"/><text fill="#000000" font-family="sans-serif" font-size="14" lengthAdjust="spacing" textLength="160.4873" x="1211.7606" y="177.9373">Просмотр статистики</text></g><!--entity UC6--><g class="entity" data-qualified-name="DJ Library System.UC6" data-source-line="13" id="ent0011"><ellipse cx="604.997" cy="173.2934" fill="#F1F1F1" rx="145.467" ry="31.4934" style="stroke:#181818;stroke-width:0.5;"/><text fill="#000000" font-family="sans-serif" font-size="14" lengthAdjust="spacing" textLength="273.0342" x="468.4799" y="177.9418">Добавление исполнителей и жанров</text></g><!--entity UC7--><g class="entity" data-qualified-name="DJ Library System.UC7" data-source-line="14" id="ent0012"><ellipse cx="1502.9952" cy="173.287" fill="#F1F1F1" rx="82.9852" ry="18.997" style="stroke:#181818;stroke-width:0.5;"/><text fill="#000000" font-family="sans-serif" font-size="14" lengthAdjust="spacing" textLength="137.6621" x="1434.1642" y="177.9355">Создание событий</text></g><!--entity DJ--><g class="entity" data-qualified-name="DJ" data-source-line="2" id="ent0002"><ellipse cx="498" cy="14" fill="#F1F1F1" rx="8" ry="8" style="stroke:#181818;stroke-width:0.5;"/><path d="M498,22 L498,49 M485,30 L511,30 M498,49 L485,64 M498,49 L511,64" fill="none" style="stroke:#181818;stroke-width:0.5;"/><text fill="#000000" font-family="sans-serif" font-size="14" lengthAdjust="spacing" textLength="14.9092" x="490.5454" y="78.4951">DJ</text></g><!--entity EventManager--><g class="entity" data-qualified-name="EventManager" data-source-line="3" id="ent0003"><ellipse cx="1291.9963" cy="14" fill="#F1F1F1" rx="8" ry="8" style="stroke:#181818;stroke-width:0.5;"/><path d="M1291.9963,22 L1291.9963,49 M1278.9963,30 L1304.9963,30 M1291.9963,49 L1278.9963,64 M1291.9963,49 L1304.9963,64" fill="none" style="stroke:#181818;stroke-width:0.5;"/><text fill="#000000" font-family="sans-serif" font-size="14" lengthAdjust="spacing" textLength="101.4727" x="1241.26" y="78.4951">EventManager</text></g><!--entity ExternalSource--><g class="entity" data-qualified-name="ExternalSource" data-source-line="4" id="ent0004"><ellipse cx="711.0044" cy="14" fill="#F1F1F1" rx="8" ry="8" style="stroke:#181818;stroke-width:0.5;"/><path d="M711.0044,22 L711.0044,49 M698.0044,30 L724.0044,30 M711.0044,49 L698.0044,64 M711.0044,49 L724.0044,64" fill="none" style="stroke:#181818;stroke-width:0.5;"/><text fill="#000000" font-family="sans-serif" font-size="14" lengthAdjust="spacing" textLength="206.0488" x="607.98" y="78.4951">Внешняя музыкальная база</text></g><!--link DJ to UC1--><g class="link" data-entity-1="ent0002" data-entity-2="ent0006" data-link-type="dependency" data-source-line="18" id="lnk13"><path d="M511.92,51.75 C529.58,60.41 561.22,74.77 590,81.79 C667.2,100.64 693.25,71.81 768,98.79 C801.28,110.8 829.5224,131.5912 850.0924,149.0212" fill="none" id="DJ-to-UC1" style="stroke:#181818;stroke-width:1;"/><polygon fill="#181818" points="854.67,152.9,850.3895,144.03,850.8553,149.6676,845.2177,150.1335,854.67,152.9" style="stroke:#181818;stroke-width:1;"/></g><!--link DJ to UC2--><g class="link" data-entity-1="ent0002" data-entity-2="ent0007" data-link-type="dependency" data-source-line="19" id="lnk14"><path d="M484.05,55.31 C455.98,76.76 397.1067,121.756 361.3567,149.086" fill="none" id="DJ-to-UC2" style="stroke:#181818;stroke-width:1;"/><polygon fill="#181818" points="356.59,152.73,366.1694,150.4418,360.5622,149.6933,361.3107,144.0862,356.59,152.73" style="stroke:#181818;stroke-width:1;"/></g><!--link DJ to UC3--><g class="link" data-entity-1="ent0002" data-entity-2="ent0008" data-link-type="dependency" data-source-line="20" id="lnk15"><path d="M484.12,45.36 C442.49,47.9 315.68,58.67 220,98.79 C187.79,112.3 159.9969,132.5922 139.4169,149.4922" fill="none" id="DJ-to-UC3" style="stroke:#181818;stroke-width:1;"/><polygon fill="#181818" points="134.78,153.3,144.2739,150.6796,138.6441,150.1269,139.1969,144.4971,134.78,153.3" style="stroke:#181818;stroke-width:1;"/></g><!--link DJ to UC6--><g class="link" data-entity-1="ent0002" data-entity-2="ent0011" data-link-type="dependency" data-source-line="21" id="lnk16"><path d="M511.99,61.33 C529.1,81.74 554.5246,112.0826 575.6746,137.3026" fill="none" id="DJ-to-UC6" style="stroke:#181818;stroke-width:1;"/><polygon fill="#181818" points="579.53,141.9,576.8118,132.4337,576.3171,138.0689,570.682,137.5743,579.53,141.9" style="stroke:#181818;stroke-width:1;"/></g><!--link EventManager to UC4--><g class="link" data-entity-1="ent0003" data-entity-2="ent0009" data-link-type="dependency" data-source-line="23" id="lnk17"><path d="M1240.87,67.44 C1221.97,76.48 1200.62,87.43 1182,98.79 C1153.68,116.08 1128.0356,135.6199 1108.5256,151.3099" fill="none" id="EventManager-to-UC4" style="stroke:#181818;stroke-width:1;"/><polygon fill="#181818" points="1103.85,155.07,1113.3702,152.5469,1107.7463,151.9365,1108.3567,146.3127,1103.85,155.07" style="stroke:#181818;stroke-width:1;"/></g><!--link EventManager to UC5--><g class="link" data-entity-1="ent0003" data-entity-2="ent0010" data-link-type="dependency" data-source-line="24" id="lnk18"><path d="M1292,82.25 C1292,105.05 1292,127.25 1292,145.95" fill="none" id="EventManager-to-UC5" style="stroke:#181818;stroke-width:1;"/><polygon fill="#181818" points="1292,151.95,1296,142.95,1292,146.95,1288,142.95,1292,151.95" style="stroke:#181818;stroke-width:1;"/></g><!--link EventManager to UC7--><g class="link" data-entity-1="ent0003" data-entity-2="ent0012" data-link-type="dependency" data-source-line="25" id="lnk19"><path d="M1343.07,67.54 C1361.97,76.59 1383.32,87.52 1402,98.79 C1430.4,115.94 1456.2074,135.149 1476.1774,150.799" fill="none" id="EventManager-to-UC7" style="stroke:#181818;stroke-width:1;"/><polygon fill="#181818" points="1480.9,154.5,1476.2834,145.8002,1476.9645,151.4159,1471.3488,152.0969,1480.9,154.5" style="stroke:#181818;stroke-width:1;"/></g><!--link ExternalSource to UC1--><g class="link" data-entity-1="ent0004" data-entity-2="ent0006" data-link-type="dependency" data-source-line="27" id="lnk20"><path d="M759.61,82.25 C789.84,105.64 822.6755,131.0271 846.8055,149.7071" fill="none" id="ExternalSource-to-UC1" style="stroke:#181818;stroke-width:1;"/><polygon fill="#181818" points="851.55,153.38,846.8819,144.7077,847.5963,150.3193,841.9847,151.0337,851.55,153.38" style="stroke:#181818;stroke-width:1;"/></g><!--link ExternalSource to UC6--><g class="link" data-entity-1="ent0004" data-entity-2="ent0011" data-link-type="dependency" data-source-line="28" id="lnk21"><path d="M679.77,82.25 C664.01,101.22 648.9845,119.3252 634.1445,137.1852" fill="none" id="ExternalSource-to-UC6" style="stroke:#181818;stroke-width:1;"/><polygon fill="#181818" points="630.31,141.8,639.1383,137.4341,633.5054,137.9543,632.9852,132.3214,630.31,141.8" style="stroke:#181818;stroke-width:1;"/></g><?plantuml-src XLBBQi905DtdAuPiNBceprMxgTr8kv9-m3GCKh0AIIoLKj1sqO85YtHRYlG7eZGrQeo_SEUFUcQIg0r21p9CpjnpxpdtJeuTgyNeZPRoaIBPbyCOChZbTcnMgoU7irlHTYzucpU5dK9thh3RlDNeT6rBCEumayQq9b--q5gEv8XHA9zeBeUq98zMyXMNdeAd-9sJPnf6BXKmeK0E8C6daBn4WYqibxURBS7CMfsTNr_PtEwnHiznnOt9xWs6rNM4nHr4q1TjP1-9PxH2bZK5v3Fv2CZNvKCAJANnylGeGvnG13NVY8b9jD4P5jXZJH7D4ceXG_r4ZAQX3AAsAUG0NTWd5ZF43zq1rOxddTWigPIjfgeWAiGEOqoBy_35CWFuJ3sMCzHtf9rccgDey1e1KWvKxxLlN33wKLvYLqdAoZzjGpBKa4EjP96GgiR3tf37QkguXG4GKKhhdg7uA1avvfpFd-WXRO-5tR6uErOCO_zD9cZf45W-15R1__k0qy87uSel?></g></svg>