<svg xmlns="http://www.w3.org/2000/svg" xmlns:xlink="http://www.w3.org/1999/xlink" contentStyleType="text/css" data-diagram-type="CLASS" height="698px" preserveAspectRatio="none" style="width:633px;height:698px;background:#FFFFFF;" version="1.1" viewBox="0 0 633 698" width="633px" zoomAndPan="magnify"><defs/><g><!--class ARTIST--><g class="entity" data-entity="ARTIST" data-source-line="2" data-uid="ent0002" id="entity_ARTIST"><rect fill="#F1F1F1" height="121.4531" rx="2.5" ry="2.5" style="stroke:#181818;stroke-width:0.5;" width="82.2734" x="7" y="173"/><ellipse cx="22.3823" cy="193.1328" fill="#ADD1B2" rx="11" ry="11" style="stroke:#181818;stroke-width:1;"/><path d="M25.3511,198.7734 Q24.7729,199.0703 24.1323,199.2109 Q23.4917,199.3672 22.7886,199.3672 Q20.2886,199.3672 18.9604,197.7266 Q17.6479,196.0703 17.6479,192.9453 Q17.6479,189.8203 18.9604,188.1641 Q20.2886,186.5078 22.7886,186.5078 Q23.4917,186.5078 24.1323,186.6641 Q24.7886,186.8203 25.3511,187.1172 L25.3511,189.8359 Q24.7261,189.2578 24.1323,188.9922 Q23.5386,188.7109 22.9136,188.7109 Q21.5698,188.7109 20.8823,189.7891 Q20.1948,190.8516 20.1948,192.9453 Q20.1948,195.0391 20.8823,196.1172 Q21.5698,197.1797 22.9136,197.1797 Q23.5386,197.1797 24.1323,196.9141 Q24.7261,196.6328 25.3511,196.0547 L25.3511,198.7734 Z " fill="#000000"/><text fill="#000000" font-family="sans-serif" font-size="12" font-style="italic" lengthAdjust="spacing" textLength="49.6465" x="36.356" y="189.1387">«entity»</text><text fill="#000000" font-family="sans-serif" font-size="14" lengthAdjust="spacing" textLength="49.4238" x="36.4673" y="204.9639">ARTIST</text><line style="stroke:#181818;stroke-width:0.5;" x1="8" x2="88.2734" y1="213.2656" y2="213.2656"/><ellipse cx="18" cy="226.9141" fill="none" rx="3" ry="3" style="stroke:#038048;stroke-width:1;"/><text fill="#000000" font-family="sans-serif" font-size="14" lengthAdjust="spacing" textLength="56.2734" x="27" y="230.2607">artist_id</text><ellipse cx="18" cy="243.2109" fill="none" rx="3" ry="3" style="stroke:#038048;stroke-width:1;"/><text fill="#000000" font-family="sans-serif" font-size="14" lengthAdjust="spacing" textLength="39.7031" x="27" y="246.5576">name</text><ellipse cx="18" cy="259.5078" fill="none" rx="3" ry="3" style="stroke:#038048;stroke-width:1;"/><text fill="#000000" font-family="sans-serif" font-size="14" lengthAdjust="spacing" textLength="53.5391" x="27" y="262.8545">country</text><ellipse cx="18" cy="275.8047" fill="none" rx="3" ry="3" style="stroke:#038048;stroke-width:1;"/><text fill="#000000" font-family="sans-serif" font-size="14" lengthAdjust="spacing" textLength="33.5713" x="27" y="279.1514">style</text><line style="stroke:#181818;stroke-width:0.5;" x1="8" x2="88.2734" y1="286.4531" y2="286.4531"/></g><!--class GENRE--><g class="entity" data-entity="GENRE" data-source-line="9" data-uid="ent0003" id="entity_GENRE"><rect fill="#F1F1F1" height="121.4531" rx="2.5" ry="2.5" style="stroke:#181818;stroke-width:0.5;" width="105.1191" x="124.5" y="173"/><ellipse cx="150.4705" cy="193.1328" fill="#ADD1B2" rx="11" ry="11" style="stroke:#181818;stroke-width:1;"/><path d="M153.4393,198.7734 Q152.8611,199.0703 152.2205,199.2109 Q151.5799,199.3672 150.8768,199.3672 Q148.3768,199.3672 147.0486,197.7266 Q145.7361,196.0703 145.7361,192.9453 Q145.7361,189.8203 147.0486,188.1641 Q148.3768,186.5078 150.8768,186.5078 Q151.5799,186.5078 152.2205,186.6641 Q152.8768,186.8203 153.4393,187.1172 L153.4393,189.8359 Q152.8143,189.2578 152.2205,188.9922 Q151.6268,188.7109 151.0018,188.7109 Q149.658,188.7109 148.9705,189.7891 Q148.283,190.8516 148.283,192.9453 Q148.283,195.0391 148.9705,196.1172 Q149.658,197.1797 151.0018,197.1797 Q151.6268,197.1797 152.2205,196.9141 Q152.8143,196.6328 153.4393,196.0547 L153.4393,198.7734 Z " fill="#000000"/><text fill="#000000" font-family="sans-serif" font-size="12" font-style="italic" lengthAdjust="spacing" textLength="49.6465" x="166.4553" y="189.1387">«entity»</text><text fill="#000000" font-family="sans-serif" font-size="14" lengthAdjust="spacing" textLength="48.7402" x="166.9084" y="204.9639">GENRE</text><line style="stroke:#181818;stroke-width:0.5;" x1="125.5" x2="228.6191" y1="213.2656" y2="213.2656"/><ellipse cx="135.5" cy="226.9141" fill="none" rx="3" ry="3" style="stroke:#038048;stroke-width:1;"/><text fill="#000000" font-family="sans-serif" font-size="14" lengthAdjust="spacing" textLength="60.5186" x="144.5" y="230.2607">genre_id</text><ellipse cx="135.5" cy="243.2109" fill="none" rx="3" ry="3" style="stroke:#038048;stroke-width:1;"/><text fill="#000000" font-family="sans-serif" font-size="14" lengthAdjust="spacing" textLength="39.7031" x="144.5" y="246.5576">name</text><ellipse cx="135.5" cy="259.5078" fill="none" rx="3" ry="3" style="stroke:#038048;stroke-width:1;"/><text fill="#000000" font-family="sans-serif" font-size="14" lengthAdjust="spacing" textLength="79.1191" x="144.5" y="262.8545">bpm_range</text><ellipse cx="135.5" cy="275.8047" fill="none" rx="3" ry="3" style="stroke:#038048;stroke-width:1;"/><text fill="#000000" font-family="sans-serif" font-size="14" lengthAdjust="spacing" textLength="77.8408" x="144.5" y="279.1514">description</text><line style="stroke:#181818;stroke-width:0.5;" x1="125.5" x2="228.6191" y1="286.4531" y2="286.4531"/></g><!--class TRACK--><g class="entity" data-entity="TRACK" data-source-line="16" data-uid="ent0004" id="entity_TRACK"><rect fill="#F1F1F1" height="137.75" rx="2.5" ry="2.5" style="stroke:#181818;stroke-width:0.5;" width="86.1494" x="231" y="371"/><ellipse cx="249.3016" cy="391.1328" fill="#ADD1B2" rx="11" ry="11" style="stroke:#181818;stroke-width:1;"/><path d="M252.2704,396.7734 Q251.6922,397.0703 251.0516,397.2109 Q250.411,397.3672 249.7079,397.3672 Q247.2079,397.3672 245.8797,395.7266 Q244.5672,394.0703 244.5672,390.9453 Q244.5672,387.8203 245.8797,386.1641 Q247.2079,384.5078 249.7079,384.5078 Q250.411,384.5078 251.0516,384.6641 Q251.7079,384.8203 252.2704,385.1172 L252.2704,387.8359 Q251.6454,387.2578 251.0516,386.9922 Q250.4579,386.7109 249.8329,386.7109 Q248.4891,386.7109 247.8016,387.7891 Q247.1141,388.8516 247.1141,390.9453 Q247.1141,393.0391 247.8016,394.1172 Q248.4891,395.1797 249.8329,395.1797 Q250.4579,395.1797 251.0516,394.9141 Q251.6454,394.6328 252.2704,394.0547 L252.2704,396.7734 Z " fill="#000000"/><text fill="#000000" font-family="sans-serif" font-size="12" font-style="italic" lengthAdjust="spacing" textLength="49.6465" x="262.6183" y="387.1387">«entity»</text><text fill="#000000" font-family="sans-serif" font-size="14" lengthAdjust="spacing" textLength="46.8125" x="264.0353" y="402.9639">TRACK</text><line style="stroke:#181818;stroke-width:0.5;" x1="232" x2="316.1494" y1="411.2656" y2="411.2656"/><ellipse cx="242" cy="424.9141" fill="none" rx="3" ry="3" style="stroke:#038048;stroke-width:1;"/><text fill="#000000" font-family="sans-serif" font-size="14" lengthAdjust="spacing" textLength="55.4053" x="251" y="428.2607">track_id</text><ellipse cx="242" cy="441.2109" fill="none" rx="3" ry="3" style="stroke:#038048;stroke-width:1;"/><text fill="#000000" font-family="sans-serif" font-size="14" lengthAdjust="spacing" textLength="27.3711" x="251" y="444.5576">title</text><ellipse cx="242" cy="457.5078" fill="none" rx="3" ry="3" style="stroke:#038048;stroke-width:1;"/><text fill="#000000" font-family="sans-serif" font-size="14" lengthAdjust="spacing" textLength="31.4111" x="251" y="460.8545">bpm</text><ellipse cx="242" cy="473.8047" fill="none" rx="3" ry="3" style="stroke:#038048;stroke-width:1;"/><text fill="#000000" font-family="sans-serif" font-size="14" lengthAdjust="spacing" textLength="58.9121" x="251" y="477.1514">duration</text><ellipse cx="242" cy="490.1016" fill="none" rx="3" ry="3" style="stroke:#038048;stroke-width:1;"/><text fill="#000000" font-family="sans-serif" font-size="14" lengthAdjust="spacing" textLength="60.1494" x="251" y="493.4482">file_path</text><line style="stroke:#181818;stroke-width:0.5;" x1="232" x2="316.1494" y1="500.75" y2="500.75"/></g><!--class PLAYLIST--><g class="entity" data-entity="PLAYLIST" data-source-line="24" data-uid="ent0005" id="entity_PLAYLIST"><rect fill="#F1F1F1" height="88.8594" rx="2.5" ry="2.5" style="stroke:#181818;stroke-width:0.5;" width="95.9795" x="35" y="395.5"/><ellipse cx="50.1085" cy="415.6328" fill="#ADD1B2" rx="11" ry="11" style="stroke:#181818;stroke-width:1;"/><path d="M53.0773,421.2734 Q52.4992,421.5703 51.8585,421.7109 Q51.2179,421.8672 50.5148,421.8672 Q48.0148,421.8672 46.6867,420.2266 Q45.3742,418.5703 45.3742,415.4453 Q45.3742,412.3203 46.6867,410.6641 Q48.0148,409.0078 50.5148,409.0078 Q51.2179,409.0078 51.8585,409.1641 Q52.5148,409.3203 53.0773,409.6172 L53.0773,412.3359 Q52.4523,411.7578 51.8585,411.4922 Q51.2648,411.2109 50.6398,411.2109 Q49.296,411.2109 48.6085,412.2891 Q47.921,413.3516 47.921,415.4453 Q47.921,417.5391 48.6085,418.6172 Q49.296,419.6797 50.6398,419.6797 Q51.2648,419.6797 51.8585,419.4141 Q52.4523,419.1328 53.0773,418.5547 L53.0773,421.2734 Z " fill="#000000"/><text fill="#000000" font-family="sans-serif" font-size="12" font-style="italic" lengthAdjust="spacing" textLength="49.6465" x="71.1786" y="411.6387">«entity»</text><text fill="#000000" font-family="sans-serif" font-size="14" lengthAdjust="spacing" textLength="63.7383" x="64.1327" y="427.4639">PLAYLIST</text><line style="stroke:#181818;stroke-width:0.5;" x1="36" x2="129.9795" y1="435.7656" y2="435.7656"/><ellipse cx="46" cy="449.4141" fill="none" rx="3" ry="3" style="stroke:#038048;stroke-width:1;"/><text fill="#000000" font-family="sans-serif" font-size="14" lengthAdjust="spacing" textLength="69.9795" x="55" y="452.7607">playlist_id</text><ellipse cx="46" cy="465.7109" fill="none" rx="3" ry="3" style="stroke:#038048;stroke-width:1;"/><text fill="#000000" font-family="sans-serif" font-size="14" lengthAdjust="spacing" textLength="39.7031" x="55" y="469.0576">name</text><line style="stroke:#181818;stroke-width:0.5;" x1="36" x2="129.9795" y1="476.3594" y2="476.3594"/></g><!--class PLAYLIST_TRACK--><g class="entity" data-entity="PLAYLIST_TRACK" data-source-line="29" data-uid="ent0006" id="entity_PLAYLIST_TRACK"><rect fill="#F1F1F1" height="105.1563" rx="2.5" ry="2.5" style="stroke:#181818;stroke-width:0.5;" width="149.5508" x="34" y="586"/><ellipse cx="49" cy="606.1328" fill="#ADD1B2" rx="11" ry="11" style="stroke:#181818;stroke-width:1;"/><path d="M51.9688,611.7734 Q51.3906,612.0703 50.75,612.2109 Q50.1094,612.3672 49.4063,612.3672 Q46.9063,612.3672 45.5781,610.7266 Q44.2656,609.0703 44.2656,605.9453 Q44.2656,602.8203 45.5781,601.1641 Q46.9063,599.5078 49.4063,599.5078 Q50.1094,599.5078 50.75,599.6641 Q51.4063,599.8203 51.9688,600.1172 L51.9688,602.8359 Q51.3438,602.2578 50.75,601.9922 Q50.1563,601.7109 49.5313,601.7109 Q48.1875,601.7109 47.5,602.7891 Q46.8125,603.8516 46.8125,605.9453 Q46.8125,608.0391 47.5,609.1172 Q48.1875,610.1797 49.5313,610.1797 Q50.1563,610.1797 50.75,609.9141 Q51.3438,609.6328 51.9688,609.0547 L51.9688,611.7734 Z " fill="#000000"/><text fill="#000000" font-family="sans-serif" font-size="12" font-style="italic" lengthAdjust="spacing" textLength="49.6465" x="96.9521" y="602.1387">«entity»</text><text fill="#000000" font-family="sans-serif" font-size="14" lengthAdjust="spacing" textLength="117.5508" x="63" y="617.9639">PLAYLIST_TRACK</text><line style="stroke:#181818;stroke-width:0.5;" x1="35" x2="182.5508" y1="626.2656" y2="626.2656"/><ellipse cx="45" cy="639.9141" fill="none" rx="3" ry="3" style="stroke:#038048;stroke-width:1;"/><text fill="#000000" font-family="sans-serif" font-size="14" lengthAdjust="spacing" textLength="69.9795" x="54" y="643.2607">playlist_id</text><ellipse cx="45" cy="656.2109" fill="none" rx="3" ry="3" style="stroke:#038048;stroke-width:1;"/><text fill="#000000" font-family="sans-serif" font-size="14" lengthAdjust="spacing" textLength="55.4053" x="54" y="659.5576">track_id</text><ellipse cx="45" cy="672.5078" fill="none" rx="3" ry="3" style="stroke:#038048;stroke-width:1;"/><text fill="#000000" font-family="sans-serif" font-size="14" lengthAdjust="spacing" textLength="55.4531" x="54" y="675.8545">position</text><line style="stroke:#181818;stroke-width:0.5;" x1="35" x2="182.5508" y1="683.1563" y2="683.1563"/></g><!--class SET--><g class="entity" data-entity="SET" data-source-line="35" data-uid="ent0007" id="entity_SET"><rect fill="#F1F1F1" height="105.1563" rx="2.5" ry="2.5" style="stroke:#181818;stroke-width:0.5;" width="77.6465" x="442" y="387.5"/><ellipse cx="457" cy="407.6328" fill="#ADD1B2" rx="11" ry="11" style="stroke:#181818;stroke-width:1;"/><path d="M459.9688,413.2734 Q459.3906,413.5703 458.75,413.7109 Q458.1094,413.8672 457.4063,413.8672 Q454.9063,413.8672 453.5781,412.2266 Q452.2656,410.5703 452.2656,407.4453 Q452.2656,404.3203 453.5781,402.6641 Q454.9063,401.0078 457.4063,401.0078 Q458.1094,401.0078 458.75,401.1641 Q459.4063,401.3203 459.9688,401.6172 L459.9688,404.3359 Q459.3438,403.7578 458.75,403.4922 Q458.1563,403.2109 457.5313,403.2109 Q456.1875,403.2109 455.5,404.2891 Q454.8125,405.3516 454.8125,407.4453 Q454.8125,409.5391 455.5,410.6172 Q456.1875,411.6797 457.5313,411.6797 Q458.1563,411.6797 458.75,411.4141 Q459.3438,411.1328 459.9688,410.5547 L459.9688,413.2734 Z " fill="#000000"/><text fill="#000000" font-family="sans-serif" font-size="12" font-style="italic" lengthAdjust="spacing" textLength="49.6465" x="469" y="403.6387">«entity»</text><text fill="#000000" font-family="sans-serif" font-size="14" lengthAdjust="spacing" textLength="26.2842" x="480.6812" y="419.4639">SET</text><line style="stroke:#181818;stroke-width:0.5;" x1="443" x2="518.6465" y1="427.7656" y2="427.7656"/><ellipse cx="453" cy="441.4141" fill="none" rx="3" ry="3" style="stroke:#038048;stroke-width:1;"/><text fill="#000000" font-family="sans-serif" font-size="14" lengthAdjust="spacing" textLength="41.1729" x="462" y="444.7607">set_id</text><ellipse cx="453" cy="457.7109" fill="none" rx="3" ry="3" style="stroke:#038048;stroke-width:1;"/><text fill="#000000" font-family="sans-serif" font-size="14" lengthAdjust="spacing" textLength="39.7031" x="462" y="461.0576">name</text><ellipse cx="453" cy="474.0078" fill="none" rx="3" ry="3" style="stroke:#038048;stroke-width:1;"/><text fill="#000000" font-family="sans-serif" font-size="14" lengthAdjust="spacing" textLength="33.5713" x="462" y="477.3545">style</text><line style="stroke:#181818;stroke-width:0.5;" x1="443" x2="518.6465" y1="484.6563" y2="484.6563"/></g><!--class SET_TRACK--><g class="entity" data-entity="SET_TRACK" data-source-line="41" data-uid="ent0008" id="entity_SET_TRACK"><rect fill="#F1F1F1" height="105.1563" rx="2.5" ry="2.5" style="stroke:#181818;stroke-width:0.5;" width="112.0967" x="411" y="586"/><ellipse cx="426" cy="606.1328" fill="#ADD1B2" rx="11" ry="11" style="stroke:#181818;stroke-width:1;"/><path d="M428.9688,611.7734 Q428.3906,612.0703 427.75,612.2109 Q427.1094,612.3672 426.4063,612.3672 Q423.9063,612.3672 422.5781,610.7266 Q421.2656,609.0703 421.2656,605.9453 Q421.2656,602.8203 422.5781,601.1641 Q423.9063,599.5078 426.4063,599.5078 Q427.1094,599.5078 427.75,599.6641 Q428.4063,599.8203 428.9688,600.1172 L428.9688,602.8359 Q428.3438,602.2578 427.75,601.9922 Q427.1563,601.7109 426.5313,601.7109 Q425.1875,601.7109 424.5,602.7891 Q423.8125,603.8516 423.8125,605.9453 Q423.8125,608.0391 424.5,609.1172 Q425.1875,610.1797 426.5313,610.1797 Q427.1563,610.1797 427.75,609.9141 Q428.3438,609.6328 428.9688,609.0547 L428.9688,611.7734 Z " fill="#000000"/><text fill="#000000" font-family="sans-serif" font-size="12" font-style="italic" lengthAdjust="spacing" textLength="49.6465" x="455.2251" y="602.1387">«entity»</text><text fill="#000000" font-family="sans-serif" font-size="14" lengthAdjust="spacing" textLength="80.0967" x="440" y="617.9639">SET_TRACK</text><line style="stroke:#181818;stroke-width:0.5;" x1="412" x2="522.0967" y1="626.2656" y2="626.2656"/><ellipse cx="422" cy="639.9141" fill="none" rx="3" ry="3" style="stroke:#038048;stroke-width:1;"/><text fill="#000000" font-family="sans-serif" font-size="14" lengthAdjust="spacing" textLength="41.1729" x="431" y="643.2607">set_id</text><ellipse cx="422" cy="656.2109" fill="none" rx="3" ry="3" style="stroke:#038048;stroke-width:1;"/><text fill="#000000" font-family="sans-serif" font-size="14" lengthAdjust="spacing" textLength="55.4053" x="431" y="659.5576">track_id</text><ellipse cx="422" cy="672.5078" fill="none" rx="3" ry="3" style="stroke:#038048;stroke-width:1;"/><text fill="#000000" font-family="sans-serif" font-size="14" lengthAdjust="spacing" textLength="83.125" x="431" y="675.8545">order_index</text><line style="stroke:#181818;stroke-width:0.5;" x1="412" x2="522.0967" y1="683.1563" y2="683.1563"/></g><!--class EVENT--><g class="entity" data-entity="EVENT" data-source-line="47" data-uid="ent0009" id="entity_EVENT"><rect fill="#F1F1F1" height="105.1563" rx="2.5" ry="2.5" style="stroke:#181818;stroke-width:0.5;" width="85.6504" x="446" y="181"/><ellipse cx="464.3108" cy="201.1328" fill="#ADD1B2" rx="11" ry="11" style="stroke:#181818;stroke-width:1;"/><path d="M467.2796,206.7734 Q466.7015,207.0703 466.0608,207.2109 Q465.4202,207.3672 464.7171,207.3672 Q462.2171,207.3672 460.889,205.7266 Q459.5765,204.0703 459.5765,200.9453 Q459.5765,197.8203 460.889,196.1641 Q462.2171,194.5078 464.7171,194.5078 Q465.4202,194.5078 466.0608,194.6641 Q466.7171,194.8203 467.2796,195.1172 L467.2796,197.8359 Q466.6546,197.2578 466.0608,196.9922 Q465.4671,196.7109 464.8421,196.7109 Q463.4983,196.7109 462.8108,197.7891 Q462.1233,198.8516 462.1233,200.9453 Q462.1233,203.0391 462.8108,204.1172 Q463.4983,205.1797 464.8421,205.1797 Q465.4671,205.1797 466.0608,204.9141 Q466.6546,204.6328 467.2796,204.0547 L467.2796,206.7734 Z " fill="#000000"/><text fill="#000000" font-family="sans-serif" font-size="12" font-style="italic" lengthAdjust="spacing" textLength="49.6465" x="477.3698" y="197.1387">«entity»</text><text fill="#000000" font-family="sans-serif" font-size="14" lengthAdjust="spacing" textLength="46.293" x="479.0466" y="212.9639">EVENT</text><line style="stroke:#181818;stroke-width:0.5;" x1="447" x2="530.6504" y1="221.2656" y2="221.2656"/><ellipse cx="457" cy="234.9141" fill="none" rx="3" ry="3" style="stroke:#038048;stroke-width:1;"/><text fill="#000000" font-family="sans-serif" font-size="14" lengthAdjust="spacing" textLength="59.6504" x="466" y="238.2607">event_id</text><ellipse cx="457" cy="251.2109" fill="none" rx="3" ry="3" style="stroke:#038048;stroke-width:1;"/><text fill="#000000" font-family="sans-serif" font-size="14" lengthAdjust="spacing" textLength="43.2578" x="466" y="254.5576">venue</text><ellipse cx="457" cy="267.5078" fill="none" rx="3" ry="3" style="stroke:#038048;stroke-width:1;"/><text fill="#000000" font-family="sans-serif" font-size="14" lengthAdjust="spacing" textLength="31.5684" x="466" y="270.8545">date</text><line style="stroke:#181818;stroke-width:0.5;" x1="447" x2="530.6504" y1="278.1563" y2="278.1563"/></g><!--class DJSetController--><g class="entity" data-entity="DJSetController" data-source-line="54" data-uid="ent0010" id="entity_DJSetController"><rect fill="#F1F1F1" height="88.8594" rx="2.5" ry="2.5" style="stroke:#181818;stroke-width:0.5;" width="145.6494" x="265" y="189"/><ellipse cx="282.9602" cy="209.1328" fill="#ADD1B2" rx="11" ry="11" style="stroke:#181818;stroke-width:1;"/><path d="M285.9289,214.7734 Q285.3508,215.0703 284.7102,215.2109 Q284.0695,215.3672 283.3664,215.3672 Q280.8664,215.3672 279.5383,213.7266 Q278.2258,212.0703 278.2258,208.9453 Q278.2258,205.8203 279.5383,204.1641 Q280.8664,202.5078 283.3664,202.5078 Q284.0695,202.5078 284.7102,202.6641 Q285.3664,202.8203 285.9289,203.1172 L285.9289,205.8359 Q285.3039,205.2578 284.7102,204.9922 Q284.1164,204.7109 283.4914,204.7109 Q282.1477,204.7109 281.4602,205.7891 Q280.7727,206.8516 280.7727,208.9453 Q280.7727,211.0391 281.4602,212.1172 Q282.1477,213.1797 283.4914,213.1797 Q284.1164,213.1797 284.7102,212.9141 Q285.3039,212.6328 285.9289,212.0547 L285.9289,214.7734 Z " fill="#000000"/><text fill="#000000" font-family="sans-serif" font-size="12" font-style="italic" lengthAdjust="spacing" textLength="56.6719" x="322.8177" y="205.1387">«control»</text><text fill="#000000" font-family="sans-serif" font-size="14" lengthAdjust="spacing" textLength="107.0713" x="297.618" y="220.9639">DJSetController</text><line style="stroke:#181818;stroke-width:0.5;" x1="266" x2="409.6494" y1="229.2656" y2="229.2656"/><line style="stroke:#181818;stroke-width:0.5;" x1="266" x2="409.6494" y1="237.2656" y2="237.2656"/><ellipse cx="276" cy="250.9141" fill="#84BE84" rx="3" ry="3" style="stroke:#038048;stroke-width:1;"/><text fill="#000000" font-family="sans-serif" font-size="14" lengthAdjust="spacing" textLength="64.1416" x="285" y="254.2607">planSet()</text><ellipse cx="276" cy="267.2109" fill="#84BE84" rx="3" ry="3" style="stroke:#038048;stroke-width:1;"/><text fill="#000000" font-family="sans-serif" font-size="14" lengthAdjust="spacing" textLength="119.6494" x="285" y="270.5576">scheduleTracks()</text></g><!--class EventManager--><g class="entity" data-entity="EventManager" data-source-line="59" data-uid="ent0011" id="entity_EventManager"><rect fill="#F1F1F1" height="88.8594" rx="2.5" ry="2.5" style="stroke:#181818;stroke-width:0.5;" width="139.7705" x="476" y="7"/><ellipse cx="493.834" cy="27.1328" fill="#ADD1B2" rx="11" ry="11" style="stroke:#181818;stroke-width:1;"/><path d="M496.8028,32.7734 Q496.2247,33.0703 495.584,33.2109 Q494.9434,33.3672 494.2403,33.3672 Q491.7403,33.3672 490.4122,31.7266 Q489.0997,30.0703 489.0997,26.9453 Q489.0997,23.8203 490.4122,22.1641 Q491.7403,20.5078 494.2403,20.5078 Q494.9434,20.5078 495.584,20.6641 Q496.2403,20.8203 496.8028,21.1172 L496.8028,23.8359 Q496.1778,23.2578 495.584,22.9922 Q494.9903,22.7109 494.3653,22.7109 Q493.0215,22.7109 492.334,23.7891 Q491.6465,24.8516 491.6465,26.9453 Q491.6465,29.0391 492.334,30.1172 Q493.0215,31.1797 494.3653,31.1797 Q494.9903,31.1797 495.584,30.9141 Q496.1778,30.6328 496.8028,30.0547 L496.8028,32.7734 Z " fill="#000000"/><text fill="#000000" font-family="sans-serif" font-size="12" font-style="italic" lengthAdjust="spacing" textLength="56.6719" x="530.8642" y="23.1387">«control»</text><text fill="#000000" font-family="sans-serif" font-size="14" lengthAdjust="spacing" textLength="101.4727" x="508.4638" y="38.9639">EventManager</text><line style="stroke:#181818;stroke-width:0.5;" x1="477" x2="614.7705" y1="47.2656" y2="47.2656"/><line style="stroke:#181818;stroke-width:0.5;" x1="477" x2="614.7705" y1="55.2656" y2="55.2656"/><ellipse cx="487" cy="68.9141" fill="#84BE84" rx="3" ry="3" style="stroke:#038048;stroke-width:1;"/><text fill="#000000" font-family="sans-serif" font-size="14" lengthAdjust="spacing" textLength="113.7705" x="496" y="72.2607">scheduleEvent()</text><ellipse cx="487" cy="85.2109" fill="#84BE84" rx="3" ry="3" style="stroke:#038048;stroke-width:1;"/><text fill="#000000" font-family="sans-serif" font-size="14" lengthAdjust="spacing" textLength="78.7295" x="496" y="88.5576">assignSet()</text></g><!--class ITrackPlayer--><g class="entity" data-entity="ITrackPlayer" data-source-line="65" data-uid="ent0012" id="entity_ITrackPlayer"><rect fill="#F1F1F1" height="105.1563" rx="2.5" ry="2.5" style="stroke:#181818;stroke-width:0.5;" width="118.3857" x="232" y="586"/><ellipse cx="247" cy="606.1328" fill="#B4A7E5" rx="11" ry="11" style="stroke:#181818;stroke-width:1;"/><path d="M242.9219,601.8984 L242.9219,599.7422 L250.3125,599.7422 L250.3125,601.8984 L247.8438,601.8984 L247.8438,609.9766 L250.3125,609.9766 L250.3125,612.1328 L242.9219,612.1328 L242.9219,609.9766 L245.3906,609.9766 L245.3906,601.8984 L242.9219,601.8984 Z " fill="#000000"/><text fill="#000000" font-family="sans-serif" font-size="12" font-style="italic" lengthAdjust="spacing" textLength="68.332" x="270.0269" y="602.1387">«interface»</text><text fill="#000000" font-family="sans-serif" font-size="14" font-style="italic" lengthAdjust="spacing" textLength="86.3857" x="261" y="617.9639">ITrackPlayer</text><line style="stroke:#181818;stroke-width:0.5;" x1="233" x2="349.3857" y1="626.2656" y2="626.2656"/><line style="stroke:#181818;stroke-width:0.5;" x1="233" x2="349.3857" y1="634.2656" y2="634.2656"/><ellipse cx="243" cy="647.9141" fill="#84BE84" rx="3" ry="3" style="stroke:#038048;stroke-width:1;"/><text fill="#000000" font-family="sans-serif" font-size="14" lengthAdjust="spacing" textLength="79.2559" x="252" y="651.2607">playTrack()</text><ellipse cx="243" cy="664.2109" fill="#84BE84" rx="3" ry="3" style="stroke:#038048;stroke-width:1;"/><text fill="#000000" font-family="sans-serif" font-size="14" lengthAdjust="spacing" textLength="79.8506" x="252" y="667.5576">stopTrack()</text><ellipse cx="243" cy="680.5078" fill="#84BE84" rx="3" ry="3" style="stroke:#038048;stroke-width:1;"/><text fill="#000000" font-family="sans-serif" font-size="14" lengthAdjust="spacing" textLength="80.876" x="252" y="683.8545">nextTrack()</text></g><!--link ARTIST to TRACK--><g class="link" data-entity-1="ARTIST" data-entity-2="TRACK" data-source-line="72" data-uid="lnk13" id="link_ARTIST_TRACK"><path codeLine="72" d="M89.08,276.3 C95.06,282.27 101.16,288.32 107,294 C128.85,315.28 134.19,320.76 157,341 C181.08,362.37 204.0336,381.7095 226.3636,400.1495" fill="none" id="ARTIST-to-TRACK" style="stroke:#181818;stroke-width:1;"/><polygon fill="#181818" points="230.99,403.97,226.5973,395.155,227.1346,400.7863,221.5034,401.3236,230.99,403.97" style="stroke:#181818;stroke-width:1;"/><text fill="#000000" font-family="sans-serif" font-size="13" lengthAdjust="spacing" textLength="48.3247" x="158" y="337.0669">creates</text><text fill="#000000" font-family="sans-serif" font-size="13" lengthAdjust="spacing" textLength="8.271" x="97.3914" y="279.8458">1</text><text fill="#000000" font-family="sans-serif" font-size="13" lengthAdjust="spacing" textLength="23.0356" x="199.9755" y="394.6715">0..*</text></g><!--link GENRE to TRACK--><g class="link" data-entity-1="GENRE" data-entity-2="TRACK" data-source-line="73" data-uid="lnk14" id="link_GENRE_TRACK"><path codeLine="73" d="M201.08,294.06 C207.6,309.47 214.85,325.95 222,341 C226.63,350.74 228.964,355.5804 234.104,365.5204" fill="none" id="GENRE-to-TRACK" style="stroke:#181818;stroke-width:1;"/><polygon fill="#181818" points="236.86,370.85,236.2791,361.0183,234.5634,366.4087,229.173,364.6929,236.86,370.85" style="stroke:#181818;stroke-width:1;"/><text fill="#000000" font-family="sans-serif" font-size="13" lengthAdjust="spacing" textLength="58.8428" x="223" y="337.0669">classifies</text><text fill="#000000" font-family="sans-serif" font-size="13" lengthAdjust="spacing" textLength="8.271" x="195.5365" y="314.4022">1</text><text fill="#000000" font-family="sans-serif" font-size="13" lengthAdjust="spacing" textLength="23.0356" x="208.8381" y="360.0321">0..*</text></g><!--reverse link PLAYLIST to PLAYLIST_TRACK--><g class="link" data-entity-1="PLAYLIST" data-entity-2="PLAYLIST_TRACK" data-source-line="75" data-uid="lnk15" id="link_PLAYLIST_PLAYLIST_TRACK"><path codeLine="75" d="M77.0021,496.68 C75.4721,518.28 75.97,532.68 80,556 C81.69,565.77 84.43,575.92 87.57,585.6" fill="none" id="PLAYLIST-backto-PLAYLIST_TRACK" style="stroke:#181818;stroke-width:1;"/><polygon fill="none" points="77.85,484.71,73.4361,490.4124,77.0021,496.68,81.4161,490.9776,77.85,484.71" style="stroke:#181818;stroke-width:1;"/><text fill="#000000" font-family="sans-serif" font-size="13" lengthAdjust="spacing" textLength="55.0278" x="81" y="552.0669">contains</text><text fill="#000000" font-family="sans-serif" font-size="13" lengthAdjust="spacing" textLength="8.271" x="68.5275" y="504.4653">1</text><text fill="#000000" font-family="sans-serif" font-size="13" lengthAdjust="spacing" textLength="23.0356" x="60.3819" y="574.9266">0..*</text></g><!--reverse link TRACK to PLAYLIST_TRACK--><g class="link" data-entity-1="TRACK" data-entity-2="PLAYLIST_TRACK" data-source-line="76" data-uid="lnk16" id="link_TRACK_PLAYLIST_TRACK"><path codeLine="76" d="M223.1448,501.5611 C198.9948,530.3311 176.67,556.91 152.46,585.75" fill="none" id="TRACK-backto-PLAYLIST_TRACK" style="stroke:#181818;stroke-width:1;"/><polygon fill="none" points="230.86,492.37,223.9387,494.3938,223.1448,501.5611,230.0661,499.5373,230.86,492.37" style="stroke:#181818;stroke-width:1;"/><text fill="#000000" font-family="sans-serif" font-size="13" lengthAdjust="spacing" textLength="73.7026" x="192" y="552.0669">included_in</text><text fill="#000000" font-family="sans-serif" font-size="13" lengthAdjust="spacing" textLength="8.271" x="214.7683" y="497.1818">1</text><text fill="#000000" font-family="sans-serif" font-size="13" lengthAdjust="spacing" textLength="23.0356" x="133.5859" y="575.0959">0..*</text></g><!--reverse link SET to SET_TRACK--><g class="link" data-entity-1="SET" data-entity-2="SET_TRACK" data-source-line="78" data-uid="lnk17" id="link_SET_SET_TRACK"><path codeLine="78" d="M476.4671,504.5997 C474.4171,533.3697 472.73,557.11 470.68,585.88" fill="none" id="SET-backto-SET_TRACK" style="stroke:#181818;stroke-width:1;"/><polygon fill="#181818" points="477.32,492.63,472.9037,498.3305,476.4671,504.5997,480.8834,498.8991,477.32,492.63" style="stroke:#181818;stroke-width:1;"/><text fill="#000000" font-family="sans-serif" font-size="13" lengthAdjust="spacing" textLength="55.0278" x="475" y="552.0669">contains</text><text fill="#000000" font-family="sans-serif" font-size="13" lengthAdjust="spacing" textLength="8.271" x="468.33" y="512.7753">1</text><text fill="#000000" font-family="sans-serif" font-size="13" lengthAdjust="spacing" textLength="23.0356" x="446.6251" y="574.8667">0..*</text></g><!--reverse link TRACK to SET_TRACK--><g class="link" data-entity-1="TRACK" data-entity-2="SET_TRACK" data-source-line="79" data-uid="lnk18" id="link_TRACK_SET_TRACK"><path codeLine="79" d="M325.719,493.6609 C355.059,523.5309 385.53,554.56 416.32,585.9" fill="none" id="TRACK-backto-SET_TRACK" style="stroke:#181818;stroke-width:1;"/><polygon fill="#181818" points="317.31,485.1,318.6609,492.1834,325.719,493.6609,324.3681,486.5774,317.31,485.1" style="stroke:#181818;stroke-width:1;"/><text fill="#000000" font-family="sans-serif" font-size="13" lengthAdjust="spacing" textLength="62.1245" x="383" y="552.0669">played_in</text><text fill="#000000" font-family="sans-serif" font-size="13" lengthAdjust="spacing" textLength="8.271" x="325.1558" y="488.4261">1</text><text fill="#000000" font-family="sans-serif" font-size="13" lengthAdjust="spacing" textLength="23.0356" x="384.9605" y="574.8894">0..*</text></g><!--link EVENT to SET--><g class="link" data-entity-1="EVENT" data-entity-2="SET" data-source-line="81" data-uid="lnk19" id="link_EVENT_SET"><path codeLine="81" d="M486.98,286.1 C485.77,317.1 484.464,350.4146 483.254,381.4146" fill="none" id="EVENT-to-SET" style="stroke:#181818;stroke-width:1;"/><polygon fill="#181818" points="483.02,387.41,487.368,378.5729,483.215,382.4138,479.3741,378.2608,483.02,387.41" style="stroke:#181818;stroke-width:1;"/><text fill="#000000" font-family="sans-serif" font-size="13" lengthAdjust="spacing" textLength="29.7832" x="486" y="337.0669">uses</text><text fill="#000000" font-family="sans-serif" font-size="13" lengthAdjust="spacing" textLength="8.271" x="478.2128" y="306.2413">1</text><text fill="#000000" font-family="sans-serif" font-size="13" lengthAdjust="spacing" textLength="8.271" x="474.7959" y="376.4007">1</text></g><!--link DJSetController to TRACK--><g class="link" data-entity-1="DJSetController" data-entity-2="TRACK" data-source-line="83" data-uid="lnk20" id="link_DJSetController_TRACK"><path codeLine="83" d="M314.15,278.15 C307.14,292.43 300.01,308.59 295,324 C290.17,338.86 287.4686,349.2971 284.4886,364.8571" fill="none" id="DJSetController-to-TRACK" style="stroke:#181818;stroke-width:1;stroke-dasharray:7,7;"/><polygon fill="#181818" points="283.36,370.75,288.9815,362.663,284.3005,365.8392,281.1243,361.1583,283.36,370.75" style="stroke:#181818;stroke-width:1;"/><text fill="#000000" font-family="sans-serif" font-size="13" lengthAdjust="spacing" textLength="29.7832" x="296" y="337.0669">uses</text></g><!--link DJSetController to SET--><g class="link" data-entity-1="DJSetController" data-entity-2="SET" data-source-line="84" data-uid="lnk21" id="link_DJSetController_SET"><path codeLine="84" d="M368.5,278.12 C390.89,310.14 417.9513,348.8432 441.5413,382.5732" fill="none" id="DJSetController-to-SET" style="stroke:#181818;stroke-width:1;stroke-dasharray:7,7;"/><polygon fill="#181818" points="444.98,387.49,443.0998,377.8223,442.1144,383.3926,436.544,382.4072,444.98,387.49" style="stroke:#181818;stroke-width:1;"/><text fill="#000000" font-family="sans-serif" font-size="13" lengthAdjust="spacing" textLength="59.8584" x="410" y="337.0669">manages</text></g><!--link EventManager to EVENT--><g class="link" data-entity-1="EventManager" data-entity-2="EVENT" data-source-line="86" data-uid="lnk22" id="link_EventManager_EVENT"><path codeLine="86" d="M526.15,96.37 C522.16,106.02 518.22,116.27 515,126 C509.18,143.62 505.4024,157.4314 501.2424,175.0014" fill="none" id="EventManager-to-EVENT" style="stroke:#181818;stroke-width:1;stroke-dasharray:7,7;"/><polygon fill="#181818" points="499.86,180.84,505.826,173.0037,501.012,175.9745,498.0412,171.1605,499.86,180.84" style="stroke:#181818;stroke-width:1;"/><text fill="#000000" font-family="sans-serif" font-size="13" lengthAdjust="spacing" textLength="59.8584" x="516" y="139.0669">manages</text></g><!--link EventManager to SET--><g class="link" data-entity-1="EventManager" data-entity-2="SET" data-source-line="87" data-uid="lnk23" id="link_EventManager_SET"><path codeLine="87" d="M569.9,96.11 C574.08,105.69 577.79,115.98 580,126 C581.62,133.38 580.74,135.48 580,143 C573.3,211.09 571.53,229.05 550,294 C539.38,326.02 526.1306,354.8225 512.2106,381.9325" fill="none" id="EventManager-to-SET" style="stroke:#181818;stroke-width:1;stroke-dasharray:7,7;"/><polygon fill="#181818" points="509.47,387.27,517.1393,381.0908,511.7538,382.8221,510.0226,377.4367,509.47,387.27" style="stroke:#181818;stroke-width:1;"/><text fill="#000000" font-family="sans-serif" font-size="13" lengthAdjust="spacing" textLength="48.3882" x="577" y="238.0669">assigns</text></g><!--link SET to ITrackPlayer--><g class="link" data-entity-1="SET" data-entity-2="ITrackPlayer" data-source-line="89" data-uid="lnk24" id="link_SET_ITrackPlayer"><path codeLine="89" d="M450.23,492.68 C436.55,513.52 419.38,537.06 401,556 C385.85,571.61 382.0246,575.8655 364.6746,588.5155" fill="none" id="SET-to-ITrackPlayer" style="stroke:#181818;stroke-width:1;stroke-dasharray:7,7;"/><polygon fill="none" points="350.13,599.12,368.2094,593.3637,361.1397,583.6673,350.13,599.12" style="stroke:#181818;stroke-width:1;"/></g><!--link TRACK to ITrackPlayer--><g class="link" data-entity-1="TRACK" data-entity-2="ITrackPlayer" data-source-line="90" data-uid="lnk25" id="link_TRACK_ITrackPlayer"><path codeLine="90" d="M279.9,509.17 C282.07,534.34 282.9483,544.477 284.9783,567.937" fill="none" id="TRACK-to-ITrackPlayer" style="stroke:#181818;stroke-width:1;stroke-dasharray:7,7;"/><polygon fill="none" points="286.53,585.87,290.9559,567.4198,279.0006,568.4543,286.53,585.87" style="stroke:#181818;stroke-width:1;"/></g><!--SRC=[XLDDZvim4BtpAwnSjjqgg7kjjaY8qfQMaWXGfJqX5oPPguv1jgasQllVwmy-Gd1KJipupPitu-Sxz5v_ACxAf7n2KHeMHLpOf5TJB0GAyp8fIlJu24mIUGu2zDj3wdk3kIH2LgIn8SCdi7zrspF9ppOGyap1- -iDR9_YB8yTP4TW71nSFxfJnJ4x3c43ekQaawHbCsUPXz5N1wVakFuvSQepEfCET3t7Xij41qAXwh1ydgdtQVYKkiVlA3xJrG9MbTKjTQlwfTok5MGvPX6xP0XmNS7LrbNfJHsN14i9BM-0LuGry39JnT-LLnmqy4jbfb8LzEELOMcKt0rMYtPPcUzIfzS-V2b0HgroJqifSDMcji5YRKo1NhqUrDVFqFGKIgrSgEmiL0lwXXa-ked6IeCRwLGXEGxy5vgJh8ppZs4qoILC0Z_W6b1YEk_LPPesqy7oeWreqYpRRf5Wy2B7n4NNF4x3CjbbnUTaFpOUNkFcOOEssm1jtlh-_MPu0UzGpK5jMtZsbTq2wVMG0r4uR_AtnhRRxOYzSgygKkl3X0dF9lu79wocVGEDSe_dQUFgWlkvO3Qaa_e6KczouBGsd2PyC405wOKUwzf7lXzCunk42s09JiOnYcFX7trkMyw85S0IM0i9ExRl_maM5Xc6NEN_0G00]--></g></svg>